<mxfile host="Electron" modified="2023-09-06T17:06:12.111Z" agent="Mozilla/5.0 (Windows NT 10.0; Win64; x64) AppleWebKit/537.36 (KHTML, like Gecko) draw.io/21.6.5 Chrome/114.0.5735.243 Electron/25.3.1 Safari/537.36" etag="h9XQzaAdPLS4JPWRab49" version="21.6.5" type="device">
  <diagram id="C5RBs43oDa-KdzZeNtuy" name="Page-1">
    <mxGraphModel dx="2206" dy="2455" grid="1" gridSize="10" guides="1" tooltips="1" connect="1" arrows="1" fold="1" page="1" pageScale="1" pageWidth="827" pageHeight="1169" math="0" shadow="0">
      <root>
        <mxCell id="WIyWlLk6GJQsqaUBKTNV-0" />
        <mxCell id="WIyWlLk6GJQsqaUBKTNV-1" parent="WIyWlLk6GJQsqaUBKTNV-0" />
        <mxCell id="QTkm2JUuexC876r_ifoE-18" value="" style="swimlane;startSize=0;" vertex="1" parent="WIyWlLk6GJQsqaUBKTNV-1">
          <mxGeometry x="1510" y="-1061" width="980" height="830" as="geometry">
            <mxRectangle x="1510" y="-1160" width="50" height="40" as="alternateBounds" />
          </mxGeometry>
        </mxCell>
        <mxCell id="HTKj4prni-A2L164Fl9Y-55" value="유튜버" style="swimlane;fontStyle=1;align=center;verticalAlign=top;childLayout=stackLayout;horizontal=1;startSize=26;horizontalStack=0;resizeParent=1;resizeParentMax=0;resizeLast=0;collapsible=1;marginBottom=0;whiteSpace=wrap;html=1;" parent="QTkm2JUuexC876r_ifoE-18" vertex="1">
          <mxGeometry x="410" y="473.75" width="160" height="138" as="geometry" />
        </mxCell>
        <mxCell id="HTKj4prni-A2L164Fl9Y-58" value="contents" style="text;strokeColor=none;fillColor=none;align=left;verticalAlign=top;spacingLeft=4;spacingRight=4;overflow=hidden;rotatable=0;points=[[0,0.5],[1,0.5]];portConstraint=eastwest;whiteSpace=wrap;html=1;" parent="HTKj4prni-A2L164Fl9Y-55" vertex="1">
          <mxGeometry y="26" width="160" height="26" as="geometry" />
        </mxCell>
        <mxCell id="HTKj4prni-A2L164Fl9Y-64" value="Subscribers" style="text;strokeColor=none;fillColor=none;align=left;verticalAlign=top;spacingLeft=4;spacingRight=4;overflow=hidden;rotatable=0;points=[[0,0.5],[1,0.5]];portConstraint=eastwest;whiteSpace=wrap;html=1;" parent="HTKj4prni-A2L164Fl9Y-55" vertex="1">
          <mxGeometry y="52" width="160" height="26" as="geometry" />
        </mxCell>
        <mxCell id="QTkm2JUuexC876r_ifoE-6" value="Managers" style="text;strokeColor=none;fillColor=none;align=left;verticalAlign=top;spacingLeft=4;spacingRight=4;overflow=hidden;rotatable=0;points=[[0,0.5],[1,0.5]];portConstraint=eastwest;whiteSpace=wrap;html=1;" vertex="1" parent="HTKj4prni-A2L164Fl9Y-55">
          <mxGeometry y="78" width="160" height="26" as="geometry" />
        </mxCell>
        <mxCell id="HTKj4prni-A2L164Fl9Y-57" value="" style="line;strokeWidth=1;fillColor=none;align=left;verticalAlign=middle;spacingTop=-1;spacingLeft=3;spacingRight=3;rotatable=0;labelPosition=right;points=[];portConstraint=eastwest;strokeColor=inherit;" parent="HTKj4prni-A2L164Fl9Y-55" vertex="1">
          <mxGeometry y="104" width="160" height="8" as="geometry" />
        </mxCell>
        <mxCell id="HTKj4prni-A2L164Fl9Y-62" value="+ AddContent(Content)" style="text;strokeColor=none;fillColor=none;align=left;verticalAlign=top;spacingLeft=4;spacingRight=4;overflow=hidden;rotatable=0;points=[[0,0.5],[1,0.5]];portConstraint=eastwest;whiteSpace=wrap;html=1;" parent="HTKj4prni-A2L164Fl9Y-55" vertex="1">
          <mxGeometry y="112" width="160" height="26" as="geometry" />
        </mxCell>
        <mxCell id="HTKj4prni-A2L164Fl9Y-59" value="구독자" style="swimlane;fontStyle=1;align=center;verticalAlign=top;childLayout=stackLayout;horizontal=1;startSize=26;horizontalStack=0;resizeParent=1;resizeParentMax=0;resizeLast=0;collapsible=1;marginBottom=0;whiteSpace=wrap;html=1;" parent="QTkm2JUuexC876r_ifoE-18" vertex="1">
          <mxGeometry x="60" y="282.25" width="250" height="60" as="geometry" />
        </mxCell>
        <mxCell id="HTKj4prni-A2L164Fl9Y-60" value="" style="line;strokeWidth=1;fillColor=none;align=left;verticalAlign=middle;spacingTop=-1;spacingLeft=3;spacingRight=3;rotatable=0;labelPosition=right;points=[];portConstraint=eastwest;strokeColor=inherit;" parent="HTKj4prni-A2L164Fl9Y-59" vertex="1">
          <mxGeometry y="26" width="250" height="8" as="geometry" />
        </mxCell>
        <mxCell id="HTKj4prni-A2L164Fl9Y-61" value="+ Notification(Youtuber, Contents)" style="text;strokeColor=none;fillColor=none;align=left;verticalAlign=top;spacingLeft=4;spacingRight=4;overflow=hidden;rotatable=0;points=[[0,0.5],[1,0.5]];portConstraint=eastwest;whiteSpace=wrap;html=1;" parent="HTKj4prni-A2L164Fl9Y-59" vertex="1">
          <mxGeometry y="34" width="250" height="26" as="geometry" />
        </mxCell>
        <mxCell id="HTKj4prni-A2L164Fl9Y-65" value="유튜브관리자" style="swimlane;fontStyle=1;align=center;verticalAlign=top;childLayout=stackLayout;horizontal=1;startSize=26;horizontalStack=0;resizeParent=1;resizeParentMax=0;resizeLast=0;collapsible=1;marginBottom=0;whiteSpace=wrap;html=1;" parent="QTkm2JUuexC876r_ifoE-18" vertex="1">
          <mxGeometry x="60" y="201.25" width="250" height="60" as="geometry" />
        </mxCell>
        <mxCell id="HTKj4prni-A2L164Fl9Y-66" value="" style="line;strokeWidth=1;fillColor=none;align=left;verticalAlign=middle;spacingTop=-1;spacingLeft=3;spacingRight=3;rotatable=0;labelPosition=right;points=[];portConstraint=eastwest;strokeColor=inherit;" parent="HTKj4prni-A2L164Fl9Y-65" vertex="1">
          <mxGeometry y="26" width="250" height="8" as="geometry" />
        </mxCell>
        <mxCell id="HTKj4prni-A2L164Fl9Y-67" value="+ Notification(Youtuber, Contents)" style="text;strokeColor=none;fillColor=none;align=left;verticalAlign=top;spacingLeft=4;spacingRight=4;overflow=hidden;rotatable=0;points=[[0,0.5],[1,0.5]];portConstraint=eastwest;whiteSpace=wrap;html=1;" parent="HTKj4prni-A2L164Fl9Y-65" vertex="1">
          <mxGeometry y="34" width="250" height="26" as="geometry" />
        </mxCell>
        <mxCell id="HTKj4prni-A2L164Fl9Y-68" value="유튜버" style="swimlane;fontStyle=1;align=center;verticalAlign=top;childLayout=stackLayout;horizontal=1;startSize=26;horizontalStack=0;resizeParent=1;resizeParentMax=0;resizeLast=0;collapsible=1;marginBottom=0;whiteSpace=wrap;html=1;" parent="QTkm2JUuexC876r_ifoE-18" vertex="1">
          <mxGeometry x="410" y="241.75" width="160" height="112" as="geometry" />
        </mxCell>
        <mxCell id="HTKj4prni-A2L164Fl9Y-69" value="contents" style="text;strokeColor=none;fillColor=none;align=left;verticalAlign=top;spacingLeft=4;spacingRight=4;overflow=hidden;rotatable=0;points=[[0,0.5],[1,0.5]];portConstraint=eastwest;whiteSpace=wrap;html=1;" parent="HTKj4prni-A2L164Fl9Y-68" vertex="1">
          <mxGeometry y="26" width="160" height="26" as="geometry" />
        </mxCell>
        <mxCell id="HTKj4prni-A2L164Fl9Y-70" value="OnContentsChanged" style="text;strokeColor=none;fillColor=none;align=left;verticalAlign=top;spacingLeft=4;spacingRight=4;overflow=hidden;rotatable=0;points=[[0,0.5],[1,0.5]];portConstraint=eastwest;whiteSpace=wrap;html=1;" parent="HTKj4prni-A2L164Fl9Y-68" vertex="1">
          <mxGeometry y="52" width="160" height="26" as="geometry" />
        </mxCell>
        <mxCell id="HTKj4prni-A2L164Fl9Y-71" value="" style="line;strokeWidth=1;fillColor=none;align=left;verticalAlign=middle;spacingTop=-1;spacingLeft=3;spacingRight=3;rotatable=0;labelPosition=right;points=[];portConstraint=eastwest;strokeColor=inherit;" parent="HTKj4prni-A2L164Fl9Y-68" vertex="1">
          <mxGeometry y="78" width="160" height="8" as="geometry" />
        </mxCell>
        <mxCell id="HTKj4prni-A2L164Fl9Y-72" value="+ AddContent(Content)" style="text;strokeColor=none;fillColor=none;align=left;verticalAlign=top;spacingLeft=4;spacingRight=4;overflow=hidden;rotatable=0;points=[[0,0.5],[1,0.5]];portConstraint=eastwest;whiteSpace=wrap;html=1;" parent="HTKj4prni-A2L164Fl9Y-68" vertex="1">
          <mxGeometry y="86" width="160" height="26" as="geometry" />
        </mxCell>
        <mxCell id="HTKj4prni-A2L164Fl9Y-73" value="+ Notification(Youtuber, Contents)" style="text;strokeColor=#666666;fillColor=#f5f5f5;align=left;verticalAlign=top;spacingLeft=4;spacingRight=4;overflow=hidden;rotatable=0;points=[[0,0.5],[1,0.5]];portConstraint=eastwest;whiteSpace=wrap;html=1;fontColor=#333333;" parent="QTkm2JUuexC876r_ifoE-18" vertex="1">
          <mxGeometry x="640" y="267.75" width="250" height="26" as="geometry" />
        </mxCell>
        <mxCell id="HTKj4prni-A2L164Fl9Y-74" value="OnContentsChanged" style="text;strokeColor=#6c8ebf;fillColor=#dae8fc;align=left;verticalAlign=top;spacingLeft=4;spacingRight=4;overflow=hidden;rotatable=0;points=[[0,0.5],[1,0.5]];portConstraint=eastwest;whiteSpace=wrap;html=1;" parent="QTkm2JUuexC876r_ifoE-18" vertex="1">
          <mxGeometry x="625" y="241.75" width="160" height="26" as="geometry" />
        </mxCell>
        <mxCell id="HTKj4prni-A2L164Fl9Y-75" value="+ Notification(Youtuber, Contents)" style="text;strokeColor=#666666;fillColor=#f5f5f5;align=left;verticalAlign=top;spacingLeft=4;spacingRight=4;overflow=hidden;rotatable=0;points=[[0,0.5],[1,0.5]];portConstraint=eastwest;whiteSpace=wrap;html=1;fontColor=#333333;" parent="QTkm2JUuexC876r_ifoE-18" vertex="1">
          <mxGeometry x="640" y="293.75" width="250" height="26" as="geometry" />
        </mxCell>
        <mxCell id="HTKj4prni-A2L164Fl9Y-76" value="+ Notification(Youtuber, Contents)" style="text;strokeColor=#666666;fillColor=#f5f5f5;align=left;verticalAlign=top;spacingLeft=4;spacingRight=4;overflow=hidden;rotatable=0;points=[[0,0.5],[1,0.5]];portConstraint=eastwest;whiteSpace=wrap;html=1;fontColor=#333333;" parent="QTkm2JUuexC876r_ifoE-18" vertex="1">
          <mxGeometry x="640" y="319.75" width="250" height="26" as="geometry" />
        </mxCell>
        <mxCell id="HTKj4prni-A2L164Fl9Y-77" value="+ Notification(Youtuber, Contents)" style="text;strokeColor=#666666;fillColor=#f5f5f5;align=left;verticalAlign=top;spacingLeft=4;spacingRight=4;overflow=hidden;rotatable=0;points=[[0,0.5],[1,0.5]];portConstraint=eastwest;whiteSpace=wrap;html=1;fontColor=#333333;" parent="QTkm2JUuexC876r_ifoE-18" vertex="1">
          <mxGeometry x="640" y="345.75" width="250" height="26" as="geometry" />
        </mxCell>
        <mxCell id="HTKj4prni-A2L164Fl9Y-79" value="관리자1" style="text;html=1;strokeColor=none;fillColor=none;align=center;verticalAlign=middle;whiteSpace=wrap;rounded=0;" parent="QTkm2JUuexC876r_ifoE-18" vertex="1">
          <mxGeometry x="590" y="267.75" width="50" height="26" as="geometry" />
        </mxCell>
        <mxCell id="HTKj4prni-A2L164Fl9Y-80" value="관리자2" style="text;html=1;strokeColor=none;fillColor=none;align=center;verticalAlign=middle;whiteSpace=wrap;rounded=0;" parent="QTkm2JUuexC876r_ifoE-18" vertex="1">
          <mxGeometry x="590" y="293.75" width="50" height="26" as="geometry" />
        </mxCell>
        <mxCell id="HTKj4prni-A2L164Fl9Y-81" value="구독자1" style="text;html=1;strokeColor=none;fillColor=none;align=center;verticalAlign=middle;whiteSpace=wrap;rounded=0;" parent="QTkm2JUuexC876r_ifoE-18" vertex="1">
          <mxGeometry x="590" y="319.75" width="50" height="26" as="geometry" />
        </mxCell>
        <mxCell id="HTKj4prni-A2L164Fl9Y-82" value="AddContent(Content)&lt;br&gt;{&lt;br&gt;contents.Add(Content)&lt;br&gt;OnContentsChanged(this, Content)&lt;br&gt;}" style="rounded=0;whiteSpace=wrap;html=1;align=left;" parent="QTkm2JUuexC876r_ifoE-18" vertex="1">
          <mxGeometry x="450" y="113.75" width="250" height="115" as="geometry" />
        </mxCell>
        <mxCell id="QTkm2JUuexC876r_ifoE-0" value="구독자2" style="text;html=1;strokeColor=none;fillColor=none;align=center;verticalAlign=middle;whiteSpace=wrap;rounded=0;" vertex="1" parent="QTkm2JUuexC876r_ifoE-18">
          <mxGeometry x="590" y="345.75" width="50" height="26" as="geometry" />
        </mxCell>
        <mxCell id="QTkm2JUuexC876r_ifoE-1" value="구독자3" style="text;html=1;strokeColor=none;fillColor=none;align=center;verticalAlign=middle;whiteSpace=wrap;rounded=0;" vertex="1" parent="QTkm2JUuexC876r_ifoE-18">
          <mxGeometry x="590" y="371.75" width="50" height="26" as="geometry" />
        </mxCell>
        <mxCell id="QTkm2JUuexC876r_ifoE-3" value="O" style="swimlane;whiteSpace=wrap;html=1;fillColor=#dae8fc;strokeColor=#6c8ebf;fontSize=20;" vertex="1" parent="QTkm2JUuexC876r_ifoE-18">
          <mxGeometry x="360" y="71.25" width="570" height="352.5" as="geometry" />
        </mxCell>
        <mxCell id="HTKj4prni-A2L164Fl9Y-78" value="+ Notification(Youtuber, Contents)" style="text;strokeColor=#666666;fillColor=#f5f5f5;align=left;verticalAlign=top;spacingLeft=4;spacingRight=4;overflow=hidden;rotatable=0;points=[[0,0.5],[1,0.5]];portConstraint=eastwest;whiteSpace=wrap;html=1;fontColor=#333333;" parent="QTkm2JUuexC876r_ifoE-3" vertex="1">
          <mxGeometry x="280" y="300.5" width="250" height="26" as="geometry" />
        </mxCell>
        <mxCell id="QTkm2JUuexC876r_ifoE-4" value="X" style="swimlane;whiteSpace=wrap;html=1;fillColor=#f8cecc;strokeColor=#b85450;fontSize=20;" vertex="1" parent="QTkm2JUuexC876r_ifoE-18">
          <mxGeometry x="360" y="441.25" width="570" height="352.5" as="geometry" />
        </mxCell>
        <mxCell id="QTkm2JUuexC876r_ifoE-5" value="이런 컨셉은 알림을 받아야 하는 대상의 종류가 늘어나면 유튜버 클래스도 수정을 해야하므로 의존하는 객체들이 많아지고 유연성이 떨어지는 설계임." style="text;html=1;strokeColor=#b85450;fillColor=#f8cecc;align=center;verticalAlign=middle;whiteSpace=wrap;rounded=0;" vertex="1" parent="QTkm2JUuexC876r_ifoE-4">
          <mxGeometry x="270" y="40" width="280" height="90" as="geometry" />
        </mxCell>
        <mxCell id="HTKj4prni-A2L164Fl9Y-63" value="AddContent(Content)&lt;br&gt;{&lt;br&gt;contents.Add(Content)&lt;br&gt;foreach Subscribers&lt;br&gt;&amp;nbsp; &amp;nbsp; Subscriber.Notification(this, Content)&lt;br&gt;foreach Managers&lt;br&gt;&amp;nbsp; &amp;nbsp; Manager.Notification(this, Content)&lt;br&gt;}" style="rounded=0;whiteSpace=wrap;html=1;align=left;" parent="QTkm2JUuexC876r_ifoE-4" vertex="1">
          <mxGeometry x="60" y="180" width="250" height="115" as="geometry" />
        </mxCell>
        <mxCell id="QTkm2JUuexC876r_ifoE-7" value="구독자" style="swimlane;fontStyle=1;align=center;verticalAlign=top;childLayout=stackLayout;horizontal=1;startSize=26;horizontalStack=0;resizeParent=1;resizeParentMax=0;resizeLast=0;collapsible=1;marginBottom=0;whiteSpace=wrap;html=1;" vertex="1" parent="QTkm2JUuexC876r_ifoE-18">
          <mxGeometry x="70" y="558.75" width="250" height="60" as="geometry" />
        </mxCell>
        <mxCell id="QTkm2JUuexC876r_ifoE-8" value="" style="line;strokeWidth=1;fillColor=none;align=left;verticalAlign=middle;spacingTop=-1;spacingLeft=3;spacingRight=3;rotatable=0;labelPosition=right;points=[];portConstraint=eastwest;strokeColor=inherit;" vertex="1" parent="QTkm2JUuexC876r_ifoE-7">
          <mxGeometry y="26" width="250" height="8" as="geometry" />
        </mxCell>
        <mxCell id="QTkm2JUuexC876r_ifoE-9" value="+ Notification(Youtuber, Contents)" style="text;strokeColor=none;fillColor=none;align=left;verticalAlign=top;spacingLeft=4;spacingRight=4;overflow=hidden;rotatable=0;points=[[0,0.5],[1,0.5]];portConstraint=eastwest;whiteSpace=wrap;html=1;" vertex="1" parent="QTkm2JUuexC876r_ifoE-7">
          <mxGeometry y="34" width="250" height="26" as="geometry" />
        </mxCell>
        <mxCell id="QTkm2JUuexC876r_ifoE-10" value="유튜브관리자" style="swimlane;fontStyle=1;align=center;verticalAlign=top;childLayout=stackLayout;horizontal=1;startSize=26;horizontalStack=0;resizeParent=1;resizeParentMax=0;resizeLast=0;collapsible=1;marginBottom=0;whiteSpace=wrap;html=1;" vertex="1" parent="QTkm2JUuexC876r_ifoE-18">
          <mxGeometry x="70" y="477.75" width="250" height="60" as="geometry" />
        </mxCell>
        <mxCell id="QTkm2JUuexC876r_ifoE-11" value="" style="line;strokeWidth=1;fillColor=none;align=left;verticalAlign=middle;spacingTop=-1;spacingLeft=3;spacingRight=3;rotatable=0;labelPosition=right;points=[];portConstraint=eastwest;strokeColor=inherit;" vertex="1" parent="QTkm2JUuexC876r_ifoE-10">
          <mxGeometry y="26" width="250" height="8" as="geometry" />
        </mxCell>
        <mxCell id="QTkm2JUuexC876r_ifoE-12" value="+ Notification(Youtuber, Contents)" style="text;strokeColor=none;fillColor=none;align=left;verticalAlign=top;spacingLeft=4;spacingRight=4;overflow=hidden;rotatable=0;points=[[0,0.5],[1,0.5]];portConstraint=eastwest;whiteSpace=wrap;html=1;" vertex="1" parent="QTkm2JUuexC876r_ifoE-10">
          <mxGeometry y="34" width="250" height="26" as="geometry" />
        </mxCell>
        <mxCell id="QTkm2JUuexC876r_ifoE-14" style="edgeStyle=orthogonalEdgeStyle;rounded=0;orthogonalLoop=1;jettySize=auto;html=1;entryX=1;entryY=0.25;entryDx=0;entryDy=0;" edge="1" parent="QTkm2JUuexC876r_ifoE-18" source="HTKj4prni-A2L164Fl9Y-55" target="QTkm2JUuexC876r_ifoE-7">
          <mxGeometry relative="1" as="geometry" />
        </mxCell>
        <mxCell id="QTkm2JUuexC876r_ifoE-15" value="Notification" style="endArrow=open;endSize=12;dashed=1;html=1;rounded=0;entryX=1;entryY=0.25;entryDx=0;entryDy=0;" edge="1" parent="QTkm2JUuexC876r_ifoE-18" source="HTKj4prni-A2L164Fl9Y-68" target="HTKj4prni-A2L164Fl9Y-65">
          <mxGeometry x="0.1758" width="160" relative="1" as="geometry">
            <mxPoint x="250" y="401.25" as="sourcePoint" />
            <mxPoint x="410" y="401.25" as="targetPoint" />
            <Array as="points">
              <mxPoint x="340" y="298.25" />
              <mxPoint x="340" y="216.25" />
            </Array>
            <mxPoint as="offset" />
          </mxGeometry>
        </mxCell>
        <mxCell id="QTkm2JUuexC876r_ifoE-13" style="edgeStyle=orthogonalEdgeStyle;rounded=0;orthogonalLoop=1;jettySize=auto;html=1;entryX=1;entryY=0.25;entryDx=0;entryDy=0;" edge="1" parent="QTkm2JUuexC876r_ifoE-18" source="HTKj4prni-A2L164Fl9Y-55" target="QTkm2JUuexC876r_ifoE-10">
          <mxGeometry relative="1" as="geometry" />
        </mxCell>
        <mxCell id="QTkm2JUuexC876r_ifoE-16" value="Notification" style="endArrow=open;endSize=12;dashed=1;html=1;rounded=0;entryX=1;entryY=0.25;entryDx=0;entryDy=0;" edge="1" parent="QTkm2JUuexC876r_ifoE-18" source="HTKj4prni-A2L164Fl9Y-68" target="HTKj4prni-A2L164Fl9Y-59">
          <mxGeometry x="0.399" y="15" width="160" relative="1" as="geometry">
            <mxPoint x="420" y="308.25" as="sourcePoint" />
            <mxPoint x="320" y="226.25" as="targetPoint" />
            <Array as="points">
              <mxPoint x="340" y="297.25" />
            </Array>
            <mxPoint as="offset" />
          </mxGeometry>
        </mxCell>
        <mxCell id="QTkm2JUuexC876r_ifoE-17" value="대리자" style="rounded=0;whiteSpace=wrap;html=1;fillColor=#0050ef;fontColor=#ffffff;strokeColor=#001DBC;fontSize=20;" vertex="1" parent="WIyWlLk6GJQsqaUBKTNV-1">
          <mxGeometry x="1510" y="-1130" width="120" height="60" as="geometry" />
        </mxCell>
        <mxCell id="QTkm2JUuexC876r_ifoE-20" value="자료구조" style="rounded=0;whiteSpace=wrap;html=1;fillColor=#0050ef;fontColor=#ffffff;strokeColor=#001DBC;fontSize=20;" vertex="1" parent="WIyWlLk6GJQsqaUBKTNV-1">
          <mxGeometry x="2540" y="-1130.5" width="120" height="60" as="geometry" />
        </mxCell>
        <mxCell id="QTkm2JUuexC876r_ifoE-21" value="" style="swimlane;startSize=0;" vertex="1" parent="WIyWlLk6GJQsqaUBKTNV-1">
          <mxGeometry x="2540" y="-1061" width="840" height="831" as="geometry" />
        </mxCell>
        <mxCell id="HTKj4prni-A2L164Fl9Y-100" value="Dynamic Array" style="rounded=0;whiteSpace=wrap;html=1;fillColor=#dae8fc;strokeColor=#6c8ebf;" parent="QTkm2JUuexC876r_ifoE-21" vertex="1">
          <mxGeometry x="105" y="162" width="120" height="60" as="geometry" />
        </mxCell>
        <mxCell id="HTKj4prni-A2L164Fl9Y-101" value="LinkedList" style="rounded=0;whiteSpace=wrap;html=1;fillColor=#dae8fc;strokeColor=#6c8ebf;" parent="QTkm2JUuexC876r_ifoE-21" vertex="1">
          <mxGeometry x="35" y="533" width="120" height="60" as="geometry" />
        </mxCell>
        <mxCell id="HTKj4prni-A2L164Fl9Y-102" value="Queue" style="rounded=0;whiteSpace=wrap;html=1;fillColor=#dae8fc;strokeColor=#6c8ebf;" parent="QTkm2JUuexC876r_ifoE-21" vertex="1">
          <mxGeometry x="165" y="533" width="120" height="60" as="geometry" />
        </mxCell>
        <mxCell id="HTKj4prni-A2L164Fl9Y-103" value="Stack" style="rounded=0;whiteSpace=wrap;html=1;fillColor=#dae8fc;strokeColor=#6c8ebf;" parent="QTkm2JUuexC876r_ifoE-21" vertex="1">
          <mxGeometry x="295" y="533" width="120" height="60" as="geometry" />
        </mxCell>
        <mxCell id="HTKj4prni-A2L164Fl9Y-104" value="Binary Tree" style="rounded=0;whiteSpace=wrap;html=1;fillColor=#dae8fc;strokeColor=#6c8ebf;" parent="QTkm2JUuexC876r_ifoE-21" vertex="1">
          <mxGeometry x="425" y="533" width="120" height="60" as="geometry" />
        </mxCell>
        <mxCell id="HTKj4prni-A2L164Fl9Y-105" value="Hashtable" style="rounded=0;whiteSpace=wrap;html=1;fillColor=#dae8fc;strokeColor=#6c8ebf;" parent="QTkm2JUuexC876r_ifoE-21" vertex="1">
          <mxGeometry x="555" y="533" width="120" height="60" as="geometry" />
        </mxCell>
        <mxCell id="HTKj4prni-A2L164Fl9Y-106" value="Heap" style="rounded=0;whiteSpace=wrap;html=1;fillColor=#dae8fc;strokeColor=#6c8ebf;" parent="QTkm2JUuexC876r_ifoE-21" vertex="1">
          <mxGeometry x="685" y="533" width="120" height="60" as="geometry" />
        </mxCell>
        <mxCell id="HTKj4prni-A2L164Fl9Y-107" value="2" style="rounded=0;whiteSpace=wrap;html=1;" parent="QTkm2JUuexC876r_ifoE-21" vertex="1">
          <mxGeometry x="145" y="240" width="40" height="38" as="geometry" />
        </mxCell>
        <mxCell id="HTKj4prni-A2L164Fl9Y-108" value="1" style="rounded=0;whiteSpace=wrap;html=1;" parent="QTkm2JUuexC876r_ifoE-21" vertex="1">
          <mxGeometry x="185" y="240" width="40" height="38" as="geometry" />
        </mxCell>
        <mxCell id="HTKj4prni-A2L164Fl9Y-110" value="2" style="rounded=0;whiteSpace=wrap;html=1;" parent="QTkm2JUuexC876r_ifoE-21" vertex="1">
          <mxGeometry x="145" y="318" width="40" height="40" as="geometry" />
        </mxCell>
        <mxCell id="HTKj4prni-A2L164Fl9Y-111" value="1" style="rounded=0;whiteSpace=wrap;html=1;" parent="QTkm2JUuexC876r_ifoE-21" vertex="1">
          <mxGeometry x="185" y="318" width="40" height="40" as="geometry" />
        </mxCell>
        <mxCell id="HTKj4prni-A2L164Fl9Y-112" value="3" style="rounded=0;whiteSpace=wrap;html=1;" parent="QTkm2JUuexC876r_ifoE-21" vertex="1">
          <mxGeometry x="225" y="318" width="40" height="40" as="geometry" />
        </mxCell>
        <mxCell id="HTKj4prni-A2L164Fl9Y-113" value="" style="rounded=0;whiteSpace=wrap;html=1;" parent="QTkm2JUuexC876r_ifoE-21" vertex="1">
          <mxGeometry x="265" y="318" width="40" height="40" as="geometry" />
        </mxCell>
        <mxCell id="HTKj4prni-A2L164Fl9Y-115" style="edgeStyle=orthogonalEdgeStyle;rounded=0;orthogonalLoop=1;jettySize=auto;html=1;entryX=0;entryY=0.5;entryDx=0;entryDy=0;" parent="QTkm2JUuexC876r_ifoE-21" source="HTKj4prni-A2L164Fl9Y-114" target="HTKj4prni-A2L164Fl9Y-110" edge="1">
          <mxGeometry relative="1" as="geometry" />
        </mxCell>
        <mxCell id="HTKj4prni-A2L164Fl9Y-114" value="&amp;amp;arr" style="text;html=1;strokeColor=none;fillColor=none;align=center;verticalAlign=middle;whiteSpace=wrap;rounded=0;" parent="QTkm2JUuexC876r_ifoE-21" vertex="1">
          <mxGeometry x="35" y="248" width="60" height="30" as="geometry" />
        </mxCell>
        <mxCell id="HTKj4prni-A2L164Fl9Y-116" value="데이터 삽입시 공간이 부족하면 2배짜리 새 배열 만든 후 참조 변경" style="text;html=1;strokeColor=none;fillColor=none;align=center;verticalAlign=middle;whiteSpace=wrap;rounded=0;" parent="QTkm2JUuexC876r_ifoE-21" vertex="1">
          <mxGeometry x="235" y="165.5" width="200" height="71" as="geometry" />
        </mxCell>
        <mxCell id="HTKj4prni-A2L164Fl9Y-117" value="숙제 : 위 자료구조들의 개념 이해" style="text;html=1;strokeColor=none;fillColor=none;align=center;verticalAlign=middle;whiteSpace=wrap;rounded=0;" parent="QTkm2JUuexC876r_ifoE-21" vertex="1">
          <mxGeometry x="215" y="621" width="355" height="52" as="geometry" />
        </mxCell>
        <mxCell id="QTkm2JUuexC876r_ifoE-22" value="" style="swimlane;startSize=0;" vertex="1" parent="WIyWlLk6GJQsqaUBKTNV-1">
          <mxGeometry x="40" y="-1060" width="1400" height="830" as="geometry" />
        </mxCell>
        <mxCell id="HTKj4prni-A2L164Fl9Y-0" value="" style="rounded=0;whiteSpace=wrap;html=1;" parent="QTkm2JUuexC876r_ifoE-22" vertex="1">
          <mxGeometry x="473" y="70.25" width="220" height="440" as="geometry" />
        </mxCell>
        <mxCell id="HTKj4prni-A2L164Fl9Y-1" value="RAM" style="text;html=1;strokeColor=none;fillColor=none;align=center;verticalAlign=middle;whiteSpace=wrap;rounded=0;" parent="QTkm2JUuexC876r_ifoE-22" vertex="1">
          <mxGeometry x="463" y="40.25" width="100" height="30" as="geometry" />
        </mxCell>
        <mxCell id="HTKj4prni-A2L164Fl9Y-3" value="HEAP" style="rounded=1;whiteSpace=wrap;html=1;" parent="QTkm2JUuexC876r_ifoE-22" vertex="1">
          <mxGeometry x="370" y="240.25" width="90" height="40" as="geometry" />
        </mxCell>
        <mxCell id="HTKj4prni-A2L164Fl9Y-4" value="STACK" style="rounded=1;whiteSpace=wrap;html=1;" parent="QTkm2JUuexC876r_ifoE-22" vertex="1">
          <mxGeometry x="373" y="470.25" width="90" height="40" as="geometry" />
        </mxCell>
        <mxCell id="HTKj4prni-A2L164Fl9Y-5" value="" style="rounded=1;whiteSpace=wrap;html=1;" parent="QTkm2JUuexC876r_ifoE-22" vertex="1">
          <mxGeometry x="483" y="400.25" width="200" height="100" as="geometry" />
        </mxCell>
        <mxCell id="HTKj4prni-A2L164Fl9Y-6" value="Main(????)" style="text;html=1;strokeColor=none;fillColor=none;align=center;verticalAlign=middle;whiteSpace=wrap;rounded=0;" parent="QTkm2JUuexC876r_ifoE-22" vertex="1">
          <mxGeometry x="513" y="380.25" width="130" height="30" as="geometry" />
        </mxCell>
        <mxCell id="HTKj4prni-A2L164Fl9Y-7" value="Dummy dummy1" style="rounded=0;whiteSpace=wrap;html=1;" parent="QTkm2JUuexC876r_ifoE-22" vertex="1">
          <mxGeometry x="493" y="410.25" width="150" height="30" as="geometry" />
        </mxCell>
        <mxCell id="HTKj4prni-A2L164Fl9Y-8" value="Coord poo" style="rounded=0;whiteSpace=wrap;html=1;" parent="QTkm2JUuexC876r_ifoE-22" vertex="1">
          <mxGeometry x="493" y="470.25" width="150" height="30" as="geometry" />
        </mxCell>
        <mxCell id="HTKj4prni-A2L164Fl9Y-9" value="0x3D243C12" style="text;html=1;strokeColor=none;fillColor=none;align=center;verticalAlign=middle;whiteSpace=wrap;rounded=0;" parent="QTkm2JUuexC876r_ifoE-22" vertex="1">
          <mxGeometry x="478" y="565.25" width="180" height="40" as="geometry" />
        </mxCell>
        <mxCell id="HTKj4prni-A2L164Fl9Y-10" value="" style="rounded=0;whiteSpace=wrap;html=1;" parent="QTkm2JUuexC876r_ifoE-22" vertex="1">
          <mxGeometry x="763" y="440.25" width="40" height="40" as="geometry" />
        </mxCell>
        <mxCell id="HTKj4prni-A2L164Fl9Y-11" value="" style="rounded=0;whiteSpace=wrap;html=1;" parent="QTkm2JUuexC876r_ifoE-22" vertex="1">
          <mxGeometry x="803" y="440.25" width="40" height="40" as="geometry" />
        </mxCell>
        <mxCell id="HTKj4prni-A2L164Fl9Y-12" value="" style="rounded=0;whiteSpace=wrap;html=1;" parent="QTkm2JUuexC876r_ifoE-22" vertex="1">
          <mxGeometry x="843" y="440.25" width="40" height="40" as="geometry" />
        </mxCell>
        <mxCell id="HTKj4prni-A2L164Fl9Y-13" value="" style="rounded=0;whiteSpace=wrap;html=1;" parent="QTkm2JUuexC876r_ifoE-22" vertex="1">
          <mxGeometry x="883" y="440.25" width="40" height="40" as="geometry" />
        </mxCell>
        <mxCell id="HTKj4prni-A2L164Fl9Y-14" value="" style="endArrow=classic;html=1;rounded=0;exitX=0;exitY=0.5;exitDx=0;exitDy=0;entryX=1;entryY=0.5;entryDx=0;entryDy=0;" parent="QTkm2JUuexC876r_ifoE-22" source="HTKj4prni-A2L164Fl9Y-10" target="HTKj4prni-A2L164Fl9Y-7" edge="1">
          <mxGeometry width="50" height="50" relative="1" as="geometry">
            <mxPoint x="793" y="510.25" as="sourcePoint" />
            <mxPoint x="843" y="460.25" as="targetPoint" />
          </mxGeometry>
        </mxCell>
        <mxCell id="HTKj4prni-A2L164Fl9Y-15" value="" style="rounded=0;whiteSpace=wrap;html=1;" parent="QTkm2JUuexC876r_ifoE-22" vertex="1">
          <mxGeometry x="763" y="500.25" width="40" height="40" as="geometry" />
        </mxCell>
        <mxCell id="HTKj4prni-A2L164Fl9Y-16" value="" style="rounded=0;whiteSpace=wrap;html=1;" parent="QTkm2JUuexC876r_ifoE-22" vertex="1">
          <mxGeometry x="803" y="500.25" width="40" height="40" as="geometry" />
        </mxCell>
        <mxCell id="HTKj4prni-A2L164Fl9Y-17" value="" style="rounded=0;whiteSpace=wrap;html=1;" parent="QTkm2JUuexC876r_ifoE-22" vertex="1">
          <mxGeometry x="843" y="500.25" width="40" height="40" as="geometry" />
        </mxCell>
        <mxCell id="HTKj4prni-A2L164Fl9Y-18" value="" style="rounded=0;whiteSpace=wrap;html=1;" parent="QTkm2JUuexC876r_ifoE-22" vertex="1">
          <mxGeometry x="883" y="500.25" width="40" height="40" as="geometry" />
        </mxCell>
        <mxCell id="HTKj4prni-A2L164Fl9Y-19" value="" style="rounded=0;whiteSpace=wrap;html=1;" parent="QTkm2JUuexC876r_ifoE-22" vertex="1">
          <mxGeometry x="923" y="500.25" width="40" height="40" as="geometry" />
        </mxCell>
        <mxCell id="HTKj4prni-A2L164Fl9Y-20" value="" style="rounded=0;whiteSpace=wrap;html=1;" parent="QTkm2JUuexC876r_ifoE-22" vertex="1">
          <mxGeometry x="963" y="500.25" width="40" height="40" as="geometry" />
        </mxCell>
        <mxCell id="HTKj4prni-A2L164Fl9Y-21" value="" style="rounded=0;whiteSpace=wrap;html=1;" parent="QTkm2JUuexC876r_ifoE-22" vertex="1">
          <mxGeometry x="1003" y="500.25" width="40" height="40" as="geometry" />
        </mxCell>
        <mxCell id="HTKj4prni-A2L164Fl9Y-22" value="" style="rounded=0;whiteSpace=wrap;html=1;" parent="QTkm2JUuexC876r_ifoE-22" vertex="1">
          <mxGeometry x="1043" y="500.25" width="40" height="40" as="geometry" />
        </mxCell>
        <mxCell id="HTKj4prni-A2L164Fl9Y-23" value="" style="rounded=0;whiteSpace=wrap;html=1;" parent="QTkm2JUuexC876r_ifoE-22" vertex="1">
          <mxGeometry x="1083" y="500.25" width="40" height="40" as="geometry" />
        </mxCell>
        <mxCell id="HTKj4prni-A2L164Fl9Y-24" value="" style="rounded=0;whiteSpace=wrap;html=1;" parent="QTkm2JUuexC876r_ifoE-22" vertex="1">
          <mxGeometry x="1123" y="500.25" width="40" height="40" as="geometry" />
        </mxCell>
        <mxCell id="HTKj4prni-A2L164Fl9Y-25" value="" style="rounded=0;whiteSpace=wrap;html=1;" parent="QTkm2JUuexC876r_ifoE-22" vertex="1">
          <mxGeometry x="1163" y="500.25" width="40" height="40" as="geometry" />
        </mxCell>
        <mxCell id="HTKj4prni-A2L164Fl9Y-26" value="" style="rounded=0;whiteSpace=wrap;html=1;" parent="QTkm2JUuexC876r_ifoE-22" vertex="1">
          <mxGeometry x="1203" y="500.25" width="40" height="40" as="geometry" />
        </mxCell>
        <mxCell id="HTKj4prni-A2L164Fl9Y-27" value="" style="endArrow=classic;html=1;rounded=0;exitX=0;exitY=0.5;exitDx=0;exitDy=0;entryX=1;entryY=0.5;entryDx=0;entryDy=0;" parent="QTkm2JUuexC876r_ifoE-22" source="HTKj4prni-A2L164Fl9Y-15" target="HTKj4prni-A2L164Fl9Y-8" edge="1">
          <mxGeometry width="50" height="50" relative="1" as="geometry">
            <mxPoint x="773" y="470.25" as="sourcePoint" />
            <mxPoint x="653" y="435.25" as="targetPoint" />
          </mxGeometry>
        </mxCell>
        <mxCell id="HTKj4prni-A2L164Fl9Y-28" value="Dummy" style="rounded=1;whiteSpace=wrap;html=1;" parent="QTkm2JUuexC876r_ifoE-22" vertex="1">
          <mxGeometry x="483" y="240.25" width="100" height="50" as="geometry" />
        </mxCell>
        <mxCell id="HTKj4prni-A2L164Fl9Y-29" value="" style="rounded=0;whiteSpace=wrap;html=1;" parent="QTkm2JUuexC876r_ifoE-22" vertex="1">
          <mxGeometry x="723" y="245.25" width="40" height="40" as="geometry" />
        </mxCell>
        <mxCell id="HTKj4prni-A2L164Fl9Y-30" value="" style="rounded=0;whiteSpace=wrap;html=1;" parent="QTkm2JUuexC876r_ifoE-22" vertex="1">
          <mxGeometry x="763" y="245.25" width="40" height="40" as="geometry" />
        </mxCell>
        <mxCell id="HTKj4prni-A2L164Fl9Y-31" value="" style="rounded=0;whiteSpace=wrap;html=1;" parent="QTkm2JUuexC876r_ifoE-22" vertex="1">
          <mxGeometry x="803" y="245.25" width="40" height="40" as="geometry" />
        </mxCell>
        <mxCell id="HTKj4prni-A2L164Fl9Y-32" value="" style="rounded=0;whiteSpace=wrap;html=1;" parent="QTkm2JUuexC876r_ifoE-22" vertex="1">
          <mxGeometry x="843" y="245.25" width="40" height="40" as="geometry" />
        </mxCell>
        <mxCell id="HTKj4prni-A2L164Fl9Y-33" value="" style="rounded=0;whiteSpace=wrap;html=1;" parent="QTkm2JUuexC876r_ifoE-22" vertex="1">
          <mxGeometry x="883" y="245.25" width="40" height="40" as="geometry" />
        </mxCell>
        <mxCell id="HTKj4prni-A2L164Fl9Y-34" value="" style="rounded=0;whiteSpace=wrap;html=1;" parent="QTkm2JUuexC876r_ifoE-22" vertex="1">
          <mxGeometry x="923" y="245.25" width="40" height="40" as="geometry" />
        </mxCell>
        <mxCell id="HTKj4prni-A2L164Fl9Y-35" value="" style="rounded=0;whiteSpace=wrap;html=1;" parent="QTkm2JUuexC876r_ifoE-22" vertex="1">
          <mxGeometry x="963" y="245.25" width="40" height="40" as="geometry" />
        </mxCell>
        <mxCell id="HTKj4prni-A2L164Fl9Y-36" value="" style="rounded=0;whiteSpace=wrap;html=1;" parent="QTkm2JUuexC876r_ifoE-22" vertex="1">
          <mxGeometry x="1003" y="245.25" width="40" height="40" as="geometry" />
        </mxCell>
        <mxCell id="HTKj4prni-A2L164Fl9Y-37" value="" style="rounded=0;whiteSpace=wrap;html=1;" parent="QTkm2JUuexC876r_ifoE-22" vertex="1">
          <mxGeometry x="1043" y="245.25" width="40" height="40" as="geometry" />
        </mxCell>
        <mxCell id="HTKj4prni-A2L164Fl9Y-38" value="" style="rounded=0;whiteSpace=wrap;html=1;" parent="QTkm2JUuexC876r_ifoE-22" vertex="1">
          <mxGeometry x="1083" y="245.25" width="40" height="40" as="geometry" />
        </mxCell>
        <mxCell id="HTKj4prni-A2L164Fl9Y-39" value="" style="rounded=0;whiteSpace=wrap;html=1;" parent="QTkm2JUuexC876r_ifoE-22" vertex="1">
          <mxGeometry x="1123" y="245.25" width="40" height="40" as="geometry" />
        </mxCell>
        <mxCell id="HTKj4prni-A2L164Fl9Y-40" value="" style="rounded=0;whiteSpace=wrap;html=1;" parent="QTkm2JUuexC876r_ifoE-22" vertex="1">
          <mxGeometry x="1163" y="245.25" width="40" height="40" as="geometry" />
        </mxCell>
        <mxCell id="HTKj4prni-A2L164Fl9Y-41" value="" style="rounded=0;whiteSpace=wrap;html=1;" parent="QTkm2JUuexC876r_ifoE-22" vertex="1">
          <mxGeometry x="1203" y="245.25" width="40" height="40" as="geometry" />
        </mxCell>
        <mxCell id="HTKj4prni-A2L164Fl9Y-42" value="" style="rounded=0;whiteSpace=wrap;html=1;" parent="QTkm2JUuexC876r_ifoE-22" vertex="1">
          <mxGeometry x="1243" y="245.25" width="40" height="40" as="geometry" />
        </mxCell>
        <mxCell id="HTKj4prni-A2L164Fl9Y-43" value="" style="rounded=0;whiteSpace=wrap;html=1;" parent="QTkm2JUuexC876r_ifoE-22" vertex="1">
          <mxGeometry x="1283" y="245.25" width="40" height="40" as="geometry" />
        </mxCell>
        <mxCell id="HTKj4prni-A2L164Fl9Y-44" value="" style="rounded=0;whiteSpace=wrap;html=1;" parent="QTkm2JUuexC876r_ifoE-22" vertex="1">
          <mxGeometry x="1323" y="245.25" width="40" height="40" as="geometry" />
        </mxCell>
        <mxCell id="HTKj4prni-A2L164Fl9Y-46" value="Code" style="rounded=1;whiteSpace=wrap;html=1;" parent="QTkm2JUuexC876r_ifoE-22" vertex="1">
          <mxGeometry x="370" y="80.25" width="90" height="40" as="geometry" />
        </mxCell>
        <mxCell id="HTKj4prni-A2L164Fl9Y-47" value="BSS" style="rounded=1;whiteSpace=wrap;html=1;" parent="QTkm2JUuexC876r_ifoE-22" vertex="1">
          <mxGeometry x="370" y="130.25" width="90" height="40" as="geometry" />
        </mxCell>
        <mxCell id="HTKj4prni-A2L164Fl9Y-48" value="Data" style="rounded=1;whiteSpace=wrap;html=1;" parent="QTkm2JUuexC876r_ifoE-22" vertex="1">
          <mxGeometry x="370" y="180.25" width="90" height="40" as="geometry" />
        </mxCell>
        <mxCell id="HTKj4prni-A2L164Fl9Y-49" value="컴파일된 코드" style="rounded=1;whiteSpace=wrap;html=1;" parent="QTkm2JUuexC876r_ifoE-22" vertex="1">
          <mxGeometry x="478" y="80.25" width="205" height="40" as="geometry" />
        </mxCell>
        <mxCell id="HTKj4prni-A2L164Fl9Y-50" value="Global &amp;amp; Static 변수" style="rounded=1;whiteSpace=wrap;html=1;" parent="QTkm2JUuexC876r_ifoE-22" vertex="1">
          <mxGeometry x="478" y="130.25" width="205" height="90" as="geometry" />
        </mxCell>
        <mxCell id="HTKj4prni-A2L164Fl9Y-51" value="" style="rounded=1;whiteSpace=wrap;html=1;" parent="QTkm2JUuexC876r_ifoE-22" vertex="1">
          <mxGeometry x="483" y="320.25" width="200" height="60" as="geometry" />
        </mxCell>
        <mxCell id="HTKj4prni-A2L164Fl9Y-52" value="dummy1.CalcSum()" style="text;html=1;strokeColor=none;fillColor=none;align=center;verticalAlign=middle;whiteSpace=wrap;rounded=0;" parent="QTkm2JUuexC876r_ifoE-22" vertex="1">
          <mxGeometry x="518" y="320.25" width="130" height="30" as="geometry" />
        </mxCell>
        <mxCell id="HTKj4prni-A2L164Fl9Y-53" value="Dummy" style="rounded=1;whiteSpace=wrap;html=1;" parent="QTkm2JUuexC876r_ifoE-22" vertex="1">
          <mxGeometry x="593" y="240.25" width="100" height="50" as="geometry" />
        </mxCell>
        <mxCell id="HTKj4prni-A2L164Fl9Y-54" value="Dummy dummy2" style="rounded=0;whiteSpace=wrap;html=1;" parent="QTkm2JUuexC876r_ifoE-22" vertex="1">
          <mxGeometry x="493" y="440.25" width="150" height="30" as="geometry" />
        </mxCell>
        <mxCell id="HTKj4prni-A2L164Fl9Y-84" value="" style="rounded=0;whiteSpace=wrap;html=1;" parent="QTkm2JUuexC876r_ifoE-22" vertex="1">
          <mxGeometry x="30" y="119.25" width="120" height="60" as="geometry" />
        </mxCell>
        <mxCell id="HTKj4prni-A2L164Fl9Y-85" value="Block" style="text;html=1;strokeColor=none;fillColor=none;align=center;verticalAlign=middle;whiteSpace=wrap;rounded=0;" parent="QTkm2JUuexC876r_ifoE-22" vertex="1">
          <mxGeometry x="30" y="99.25" width="60" height="30" as="geometry" />
        </mxCell>
        <mxCell id="HTKj4prni-A2L164Fl9Y-88" value="File" style="rounded=0;whiteSpace=wrap;html=1;" parent="QTkm2JUuexC876r_ifoE-22" vertex="1">
          <mxGeometry x="40" y="130.25" width="40" height="40" as="geometry" />
        </mxCell>
        <mxCell id="HTKj4prni-A2L164Fl9Y-89" value="File" style="rounded=0;whiteSpace=wrap;html=1;" parent="QTkm2JUuexC876r_ifoE-22" vertex="1">
          <mxGeometry x="90" y="130.25" width="40" height="40" as="geometry" />
        </mxCell>
        <mxCell id="HTKj4prni-A2L164Fl9Y-90" value="" style="rounded=0;whiteSpace=wrap;html=1;" parent="QTkm2JUuexC876r_ifoE-22" vertex="1">
          <mxGeometry x="160" y="119.25" width="120" height="60" as="geometry" />
        </mxCell>
        <mxCell id="HTKj4prni-A2L164Fl9Y-91" value="Block" style="text;html=1;strokeColor=none;fillColor=none;align=center;verticalAlign=middle;whiteSpace=wrap;rounded=0;" parent="QTkm2JUuexC876r_ifoE-22" vertex="1">
          <mxGeometry x="160" y="99.25" width="60" height="30" as="geometry" />
        </mxCell>
        <mxCell id="HTKj4prni-A2L164Fl9Y-92" value="File" style="rounded=0;whiteSpace=wrap;html=1;" parent="QTkm2JUuexC876r_ifoE-22" vertex="1">
          <mxGeometry x="170" y="130.25" width="100" height="40" as="geometry" />
        </mxCell>
        <mxCell id="HTKj4prni-A2L164Fl9Y-94" value="" style="rounded=0;whiteSpace=wrap;html=1;fillColor=none;" parent="QTkm2JUuexC876r_ifoE-22" vertex="1">
          <mxGeometry x="20" y="76.25" width="290" height="144" as="geometry" />
        </mxCell>
        <mxCell id="HTKj4prni-A2L164Fl9Y-95" value="HDD" style="text;html=1;strokeColor=none;fillColor=none;align=center;verticalAlign=middle;whiteSpace=wrap;rounded=0;" parent="QTkm2JUuexC876r_ifoE-22" vertex="1">
          <mxGeometry x="30" y="46.25" width="60" height="30" as="geometry" />
        </mxCell>
        <mxCell id="HTKj4prni-A2L164Fl9Y-96" value="CPU" style="whiteSpace=wrap;html=1;aspect=fixed;" parent="QTkm2JUuexC876r_ifoE-22" vertex="1">
          <mxGeometry x="963" y="90.25" width="80" height="80" as="geometry" />
        </mxCell>
        <mxCell id="HTKj4prni-A2L164Fl9Y-97" value="L3" style="rounded=0;whiteSpace=wrap;html=1;" parent="QTkm2JUuexC876r_ifoE-22" vertex="1">
          <mxGeometry x="693" y="70.25" width="40" height="120" as="geometry" />
        </mxCell>
        <mxCell id="HTKj4prni-A2L164Fl9Y-98" value="L1" style="rounded=0;whiteSpace=wrap;html=1;" parent="QTkm2JUuexC876r_ifoE-22" vertex="1">
          <mxGeometry x="923" y="90.25" width="40" height="80" as="geometry" />
        </mxCell>
        <mxCell id="HTKj4prni-A2L164Fl9Y-99" value="L2" style="whiteSpace=wrap;html=1;aspect=fixed;" parent="QTkm2JUuexC876r_ifoE-22" vertex="1">
          <mxGeometry x="771.5" y="72.75" width="111.5" height="111.5" as="geometry" />
        </mxCell>
        <mxCell id="QTkm2JUuexC876r_ifoE-23" value="메모리" style="rounded=0;whiteSpace=wrap;html=1;fillColor=#0050ef;fontColor=#ffffff;strokeColor=#001DBC;fontSize=20;" vertex="1" parent="WIyWlLk6GJQsqaUBKTNV-1">
          <mxGeometry x="40" y="-1130" width="120" height="60" as="geometry" />
        </mxCell>
      </root>
    </mxGraphModel>
  </diagram>
</mxfile>
